<svg width="157" height="157" viewBox="0 0 157 157" fill="none" xmlns="http://www.w3.org/2000/svg">
<path d="M78.5 0C35.2134 0 0 35.2134 0 78.5C0 121.787 35.2134 157 78.5 157C121.787 157 157 121.787 157 78.5C157 35.2134 121.787 0 78.5 0ZM115.833 119.104C114.558 120.379 112.883 121.021 111.209 121.021C109.534 121.021 107.858 120.379 106.584 119.104L73.8752 86.396C72.6451 85.173 71.9587 83.5105 71.9587 81.7712V39.25C71.9587 35.6326 74.8886 32.7087 78.5 32.7087C82.1114 32.7087 85.0413 35.6326 85.0413 39.25V79.063L115.833 109.854C118.391 112.413 118.391 116.546 115.833 119.104V119.104Z" fill="#FF2D2D" fill-opacity="0.78"/>
</svg>
