<svg width="57" height="53" viewBox="0 0 57 53" fill="none" xmlns="http://www.w3.org/2000/svg">
<path d="M34.8886 52.4586C31.4498 52.4613 28.0385 51.9012 24.8177 50.8051C24.6335 50.7423 24.4646 50.647 24.3208 50.5248C24.177 50.4027 24.061 50.2559 23.9796 50.0929C23.8981 49.93 23.8527 49.754 23.846 49.5751C23.8393 49.3962 23.8714 49.2178 23.9404 49.0502C24.0095 48.8826 24.1142 48.7289 24.2485 48.5981C24.3828 48.4673 24.5441 48.3618 24.7232 48.2877C24.9024 48.2136 25.0958 48.1723 25.2924 48.1662C25.4891 48.1601 25.6851 48.1892 25.8694 48.2521C30.1395 49.6879 34.7473 50.0855 39.238 49.4056C43.7286 48.7258 47.9466 46.992 51.4754 44.3755C40.4675 44.482 29.7 39.7491 24.3431 32.1549C20.8993 27.2729 19.7735 21.5283 21.0861 15.5418C22.0913 11.2006 24.1548 7.12007 27.1245 3.60115C21.4544 5.24248 16.5748 8.60352 13.3 13.1232C10.0253 17.6429 8.55375 23.0477 9.13092 28.4354C9.15103 28.6138 9.13221 28.7942 9.07555 28.966C9.0189 29.1379 8.92553 29.2979 8.80078 29.4368C8.67602 29.5758 8.52232 29.691 8.34853 29.7758C8.17475 29.8606 7.98428 29.9133 7.78803 29.931C7.59179 29.9487 7.39365 29.931 7.20494 29.8789C7.01624 29.8268 6.84069 29.7413 6.68837 29.6273C6.53606 29.5133 6.40998 29.3731 6.31735 29.2147C6.22472 29.0564 6.16737 28.8829 6.14857 28.7043C5.42064 21.9258 7.60293 15.1539 12.2387 9.8061C16.8744 4.45827 23.6043 0.94906 31.0195 0.0130197C31.3295 -0.0262458 31.6453 0.0238223 31.9224 0.156185C32.1996 0.288548 32.4242 0.496559 32.5648 0.751015C32.7053 1.00547 32.7548 1.29359 32.7061 1.57491C32.6575 1.85623 32.5132 2.11663 32.2936 2.31953C24.6294 9.40193 19.9784 20.9185 26.865 30.6824C32.2985 38.3845 43.9893 42.7899 55.3006 41.3975C55.6041 41.3602 55.9128 41.4083 56.1853 41.5354C56.4577 41.6625 56.6809 41.8625 56.8246 42.1085C56.9683 42.3544 57.0258 42.6346 56.9893 42.9112C56.9527 43.1877 56.8239 43.4475 56.6201 43.6554C53.8812 46.4297 50.5302 48.6476 46.7858 50.1644C43.0413 51.6813 38.9875 52.463 34.8886 52.4586Z" fill="#08775D"/>
<path d="M10.9889 53C8.81551 53 6.69092 52.4137 4.8838 51.3151C3.07669 50.2166 1.66822 48.6553 0.836496 46.8285C0.00477125 45.0017 -0.212859 42.9916 0.21115 41.0523C0.63516 39.113 1.68176 37.3316 3.21858 35.9335C4.75541 34.5353 6.71344 33.5832 8.84508 33.1974C10.9767 32.8117 13.1862 33.0097 15.1942 33.7663C17.2022 34.523 18.9184 35.8044 20.1259 37.4485C21.3333 39.0925 21.9778 41.0254 21.9778 43.0027C21.9745 45.6532 20.8157 48.1943 18.7556 50.0685C16.6955 51.9428 13.9023 52.997 10.9889 53ZM10.9889 35.7319C9.40826 35.7319 7.86311 36.1583 6.54884 36.9572C5.23457 37.7562 4.21023 38.8917 3.60534 40.2203C3.00045 41.5488 2.84217 43.0107 3.15054 44.4211C3.45891 45.8315 4.22006 47.1271 5.33775 48.1439C6.45544 49.1607 7.87947 49.8532 9.42975 50.1337C10.98 50.4143 12.587 50.2703 14.0473 49.72C15.5076 49.1697 16.7558 48.2378 17.634 47.0421C18.5121 45.8464 18.9808 44.4407 18.9808 43.0027C18.9784 41.075 18.1356 39.2269 16.6374 37.8639C15.1391 36.5008 13.1078 35.7341 10.9889 35.7319Z" fill="#08775D"/>
</svg>
