<svg width="73" height="67" viewBox="0 0 73 67" fill="none" xmlns="http://www.w3.org/2000/svg">
<path d="M36.5 11.9613C35.8086 11.9613 35.1456 11.7092 34.6567 11.2604C34.1678 10.8116 33.8931 10.203 33.8931 9.56831V2.38935C33.8942 1.75532 34.1693 1.14759 34.6581 0.699601C35.1468 0.251616 35.8093 0 36.5 0C37.1907 0 37.8532 0.251616 38.3419 0.699601C38.8307 1.14759 39.1058 1.75532 39.1069 2.38935V9.56831C39.1069 9.88256 39.0394 10.1937 38.9084 10.4841C38.7774 10.7744 38.5854 11.0382 38.3433 11.2604C38.1012 11.4826 37.8139 11.6589 37.4976 11.7791C37.1813 11.8994 36.8423 11.9613 36.5 11.9613Z" fill="#3C7769"/>
<path d="M36.5 67C36.1576 67 35.8187 66.9381 35.5024 66.8178C35.1861 66.6976 34.8987 66.5213 34.6566 66.2991C34.4146 66.0769 34.2226 65.8131 34.0915 65.5228C33.9605 65.2324 33.8931 64.9213 33.8931 64.607V57.4281C33.8926 57.1135 33.9596 56.8019 34.0904 56.5112C34.2212 56.2204 34.4131 55.9562 34.6552 55.7336C34.8974 55.511 35.1849 55.3344 35.5015 55.2139C35.818 55.0934 36.1573 55.0314 36.5 55.0314C36.8426 55.0314 37.182 55.0934 37.4985 55.2139C37.815 55.3344 38.1026 55.511 38.3447 55.7336C38.5868 55.9562 38.7788 56.2204 38.9096 56.5112C39.0403 56.8019 39.1074 57.1135 39.1068 57.4281V64.607C39.1069 64.9213 39.0394 65.2324 38.9084 65.5228C38.7774 65.8131 38.5854 66.0769 38.3433 66.2991C38.1013 66.5213 37.8139 66.6976 37.4976 66.8179C37.1813 66.9381 36.8423 67 36.5 67Z" fill="#3C7769"/>
<path d="M54.9337 18.9697C54.4181 18.9697 53.9141 18.8294 53.4854 18.5664C53.0567 18.3035 52.7226 17.9297 52.5253 17.4925C52.328 17.0552 52.2764 16.5741 52.377 16.1099C52.4776 15.6457 52.7259 15.2193 53.0904 14.8846L58.6203 9.80851C59.1093 9.36018 59.7722 9.10844 60.4633 9.10864C61.1544 9.10884 61.8172 9.36096 62.3059 9.80957C62.7946 10.2582 63.0692 10.8666 63.0694 11.501C63.0696 12.1354 62.7953 12.7439 62.3069 13.1928L56.777 18.2689C56.5352 18.4914 56.2479 18.6679 55.9315 18.7882C55.6152 18.9084 55.2761 18.9701 54.9337 18.9697Z" fill="#3C7769"/>
<path d="M12.5364 57.8887C12.0209 57.8887 11.5169 57.7483 11.0882 57.4854C10.6595 57.2225 10.3254 56.8487 10.1281 56.4115C9.93077 55.9742 9.87913 55.4931 9.9797 55.0289C10.0803 54.5647 10.3285 54.1383 10.6931 53.8037L16.2229 48.7275C16.7117 48.2787 17.3748 48.0266 18.0662 48.0266C18.7576 48.0265 19.4206 48.2786 19.9095 48.7274C20.3984 49.1762 20.6731 49.7848 20.6731 50.4195C20.6731 51.0542 20.3985 51.6628 19.9096 52.1116L14.3798 57.1878C14.138 57.4104 13.8507 57.5868 13.5343 57.7071C13.218 57.8274 12.8788 57.8891 12.5364 57.8887Z" fill="#3C7769"/>
<path d="M70.3892 35.8912H62.5686C61.8779 35.8902 61.2158 35.6376 60.7278 35.189C60.2398 34.7403 59.9657 34.1322 59.9657 33.4982C59.9657 32.8642 60.2398 32.256 60.7278 31.8074C61.2158 31.3587 61.8779 31.1062 62.5686 31.1052H70.3892C70.7318 31.1047 71.0713 31.1662 71.388 31.2863C71.7047 31.4063 71.9926 31.5825 72.2351 31.8048C72.4776 32.027 72.6699 32.291 72.8012 32.5816C72.9325 32.8722 73 33.1836 73 33.4982C73 33.8127 72.9325 34.1242 72.8012 34.4148C72.6699 34.7053 72.4776 34.9693 72.2351 35.1916C71.9926 35.4138 71.7047 35.59 71.388 35.71C71.0713 35.8301 70.7318 35.8916 70.3892 35.8912Z" fill="#3C7769"/>
<path d="M10.4314 35.8912H2.61083C2.26816 35.8916 1.92874 35.8301 1.612 35.71C1.29526 35.59 1.00742 35.4138 0.764931 35.1916C0.522441 34.9693 0.330059 34.7053 0.198803 34.4148C0.0675476 34.1242 0 33.8127 0 33.4982C0 33.1836 0.0675476 32.8722 0.198803 32.5816C0.330059 32.291 0.522441 32.027 0.764931 31.8048C1.00742 31.5825 1.29526 31.4063 1.612 31.2863C1.92874 31.1662 2.26816 31.1047 2.61083 31.1052H10.4314C11.1221 31.1062 11.7842 31.3587 12.2722 31.8074C12.7602 32.256 13.0343 32.8642 13.0343 33.4982C13.0343 34.1322 12.7602 34.7403 12.2722 35.189C11.7842 35.6376 11.1221 35.8902 10.4314 35.8912H10.4314Z" fill="#3C7769"/>
<path d="M60.4636 57.8887C60.1212 57.8891 59.782 57.8274 59.4657 57.7071C59.1494 57.5868 58.8621 57.4103 58.6203 57.1878L53.0904 52.1116C52.8479 51.8895 52.6555 51.6257 52.5241 51.3352C52.3927 51.0448 52.325 50.7335 52.3248 50.419C52.3246 50.1045 52.392 49.7931 52.523 49.5025C52.654 49.212 52.8461 48.948 53.0884 48.7256C53.3306 48.5032 53.6182 48.3269 53.9347 48.2066C54.2513 48.0864 54.5905 48.0245 54.9331 48.0247C55.2757 48.0249 55.6148 48.0871 55.9312 48.2076C56.2476 48.3282 56.535 48.5049 56.777 48.7275L62.3068 53.8037C62.6714 54.1383 62.9197 54.5647 63.0203 55.0289C63.1208 55.4931 63.0692 55.9742 62.8719 56.4115C62.6746 56.8487 62.3405 57.2225 61.9118 57.4854C61.4831 57.7484 60.9791 57.8887 60.4636 57.8887V57.8887Z" fill="#3C7769"/>
<path d="M18.0662 18.9697C17.7238 18.9701 17.3847 18.9084 17.0684 18.7881C16.752 18.6679 16.4647 18.4914 16.2229 18.2688L10.6931 13.1928C10.451 12.9705 10.2589 12.7067 10.1279 12.4164C9.99693 12.1261 9.9295 11.8149 9.9295 11.5006C9.9295 11.1864 9.99693 10.8752 10.1279 10.5848C10.2589 10.2945 10.451 10.0307 10.6931 9.80849C10.9351 9.58628 11.2225 9.41001 11.5388 9.28974C11.8551 9.16948 12.1941 9.10759 12.5364 9.10759C12.8788 9.10759 13.2178 9.16948 13.534 9.28974C13.8503 9.41001 14.1377 9.58628 14.3798 9.80849L19.9095 14.8847C20.2741 15.2193 20.5223 15.6457 20.6229 16.1099C20.7235 16.5741 20.6719 17.0552 20.4746 17.4925C20.2773 17.9297 19.9431 18.3035 19.5145 18.5664C19.0858 18.8294 18.5818 18.9697 18.0662 18.9697Z" fill="#3C7769"/>
<path d="M36.5 47.8561C33.4064 47.8561 30.3824 47.014 27.8102 45.4364C25.238 43.8587 23.2333 41.6163 22.0494 38.9927C20.8656 36.3692 20.5559 33.4823 21.1594 30.6971C21.7629 27.9119 23.2526 25.3536 25.44 23.3456C27.6275 21.3376 30.4145 19.9702 33.4486 19.4162C36.4826 18.8622 39.6275 19.1465 42.4856 20.2332C45.3436 21.3199 47.7865 23.1602 49.5051 25.5214C51.2238 27.8825 52.1412 30.6585 52.1412 33.4982C52.1365 37.3048 50.487 40.9543 47.5548 43.646C44.6225 46.3377 40.6468 47.8518 36.5 47.8561ZM36.5 23.9262C34.4376 23.9262 32.4216 24.4876 30.7068 25.5394C28.992 26.5912 27.6555 28.0861 26.8663 29.8352C26.0771 31.5842 25.8706 33.5088 26.2729 35.3656C26.6753 37.2224 27.6684 38.9279 29.1267 40.2666C30.585 41.6052 32.443 42.5169 34.4657 42.8862C36.4884 43.2555 38.585 43.066 40.4904 42.3415C42.3958 41.617 44.0243 40.3902 45.1701 38.8161C46.3159 37.242 46.9274 35.3913 46.9274 33.4982C46.9243 30.9604 45.8247 28.5274 43.8698 26.733C41.915 24.9385 39.2645 23.9291 36.5 23.9262Z" fill="#3C7769"/>
</svg>
